<svg xmlns="http://www.w3.org/2000/svg" viewBox="0 0 100 100">
  <!-- Background gradient circle -->
  <defs>
    <linearGradient id="grad1" x1="0%" y1="0%" x2="100%" y2="100%">
      <stop offset="0%" style="stop-color:#A5F3FC;stop-opacity:1" />
      <stop offset="100%" style="stop-color:#60A5FA;stop-opacity:1" />
    </linearGradient>
  </defs>
  <circle cx="50" cy="50" r="48" fill="url(#grad1)"/>

  <!-- Quill pen -->
  <path d="M 65,20 C 50,30 40,55 42,75 L 50,72 C 48,55 55,35 70,25 Z" fill="white" transform="rotate(-15 50 50)"/>
  <path d="M 58,45 L 75,28 M 55,55 L 72,38 M 52,65 L 69,48" stroke="white" stroke-width="2" stroke-linecap="round" transform="rotate(-15 50 50)"/>
  
  <!-- Sparkles -->
  <path d="M30 25 L35 30 L30 35 L25 30 Z" fill="white" opacity="0.9"/>
  <path d="M22 45 L25 48 L22 51 L19 48 Z" fill="white" opacity="0.8"/>
  <path d="M78 65 L81 68 L78 71 L75 68 Z" fill="white" opacity="0.9"/>
</svg>
